<?xml version="1.0" encoding="utf-8"?>
<!-- Generator: Adobe Illustrator 21.1.0, SVG Export Plug-In . SVG Version: 6.00 Build 0)  -->
<svg version="1.1" id="Layer_1" xmlns="http://www.w3.org/2000/svg" xmlns:xlink="http://www.w3.org/1999/xlink" x="0px" y="0px"
	 width="2377.9px" height="2004.2px" viewBox="0 0 2377.9 2004.2" style="enable-background:new 0 0 2377.9 2004.2;"
	 xml:space="preserve">
<style type="text/css">
	.st0{fill:#EF508C;}
	.st1{fill:#A42E77;}
	.st2{fill:#F170A7;}
	.st3{display:none;}
	.st4{display:inline;fill:#A42E77;}
	.st5{fill:#FFFFFF;}
	.st6{fill:#003A47;}
	.st7{fill:#EDBF51;}
	.st8{fill:#4C4440;}
	.st9{fill:#8DC641;}
</style>
<g id="Layer_1_1_">
	<path class="st0" d="M725.3,254.8c0,0,93.5,246.5,386.8,191.3s255-229.5,255-229.5s236.5,244.8,297.5,565.3
		c53.3,279.4-27.8,639.7-501.6,646.1c-465.4,6.3-577.1-281.6-571.4-573.7C597.6,556.7,725.3,254.8,725.3,254.8z"/>
	<path class="st1" d="M1617.9,645.9c0,0,35.8-111.3,127.5,4.3c114.8,144.5,29.8,505.8-204,641.8
		C1528.6,1279.2,1766.7,1066.7,1617.9,645.9z"/>
	<path class="st2" d="M1180.1,1419.3c-195.8,11.2-412.3-341.2-301.8-476.1s208.3,31.7,293.3,7.9c85-23.8,204-198.4,297.5-111.1
		C1562.6,927.4,1456.4,1403.5,1180.1,1419.3z"/>
	<path class="st0" d="M1371.3,225.1c0,0-68-127.5-25.5-106.3C1388.4,140.1,1371.3,225.1,1371.3,225.1z"/>
	<path class="st0" d="M729.5,259.1c0,0-89.3-140.3-97.8-106.3C623.3,186.8,729.5,259.1,729.5,259.1z"/>
	<path class="st0" d="M730.9,272.3c0,0-1.7-166.3-26.9-141.9S730.9,272.3,730.9,272.3z"/>
	<path class="st0" d="M1369,234.7c0,0-101.4-102.9-54.6-94.6C1361.2,148.4,1369,234.7,1369,234.7z"/>
	<path class="st1" d="M597.8,752.1c0,0-136,59.5-437.8-238c-131.8-157.3-144.5-119-114.8-17s170,153,170,153s-114.8-21.3-110.5,38.3
		c4.3,59.5,93.5,46.8,93.5,46.8s-55.3,114.8,0,106.3S262,799,262,799s-68,140.3,4.3,153c72.3,12.8,72.3-51,72.3-51
		s-4.3,229.5,93.5,165.8s93.5-119,93.5-119s-38.3,110.5,119,170C640.3,1113.4,580.8,900.8,597.8,752.1z"/>
</g>
<g id="Layer_4" class="st3">
	<path class="st4" d="M147-433.4c0,0-14.9-7.5-24-2c-15,9-44,108,64,137C186-298.4,134-357.4,147-433.4z"/>
</g>
<g id="Layer_2">
	<ellipse cx="942.1" cy="710.8" rx="191.3" ry="181.6"/>
	<ellipse cx="1328.8" cy="666" rx="182.8" ry="181.6"/>
</g>
<g id="Layer_3">
	<ellipse class="st5" cx="948.4" cy="694.7" rx="167.9" ry="155.1"/>
	<ellipse class="st5" cx="1326.7" cy="656.5" rx="167.9" ry="155.1"/>
	<ellipse class="st6" cx="893.2" cy="696.9" rx="70.1" ry="72.3"/>
	<ellipse class="st6" cx="1275.7" cy="679.9" rx="70.1" ry="72.3"/>
	<path class="st7" d="M1141.8,752.1c0,0-72.3,55.3-51,97.8s59.5,29.8,59.5,29.8s68,0,63.8-46.8
		C1209.8,786.1,1141.8,752.1,1141.8,752.1z"/>
</g>
<path class="st8" d="M371.6,1788.2c0,0,567-373.9,1593.3-530.6c169-20,192,4,192,4s-797,15-1747.7,573.6
	C412.9,1839.8,371.6,1788.2,371.6,1788.2z"/>
<path class="st9" d="M2092.6,1224.6c0,0-57.5-138.9,59.4-190.2C2154.8,1047.6,2196.7,1133.4,2092.6,1224.6z"/>
<path class="st9" d="M2016.6,1293.2c0,0,135.7,10.6,117.6,136.9C2137.4,1439,2015.3,1382.9,2016.6,1293.2z"/>
<path class="st9" d="M2187,1260.6c0,0,104.6-56.9,165.3,52.4C2359.8,1322.3,2308.7,1359.4,2187,1260.6z"/>
</svg>
